<?xml version="1.0" encoding="utf-8"?>
<!-- Generator: Adobe Illustrator 26.3.1, SVG Export Plug-In . SVG Version: 6.00 Build 0)  -->
<svg version="1.1"
	 id="svg5231" xmlns:inkscape="http://www.inkscape.org/namespaces/inkscape" xmlns:rdf="http://www.w3.org/1999/02/22-rdf-syntax-ns#" xmlns:svg="http://www.w3.org/2000/svg" xmlns:sodipodi="http://sodipodi.sourceforge.net/DTD/sodipodi-0.dtd" xmlns:cc="http://creativecommons.org/ns#" xmlns:dc="http://purl.org/dc/elements/1.1/"
	 xmlns="http://www.w3.org/2000/svg" xmlns:xlink="http://www.w3.org/1999/xlink" x="0px" y="0px" viewBox="0 0 2400 2400"
	 style="enable-background:new 0 0 2400 2400;" xml:space="preserve">
<style type="text/css">
	.st0{fill:#222222;}
	.st1{fill:#333333;fill-opacity:0.9592;}
</style>
<rect x="0" y="0" class="st0" width="2400" height="2400"/>
<sodipodi:namedview  bordercolor="#666666" borderopacity="1.0" id="base" inkscape:current-layer="layer1" inkscape:cx="949.05623" inkscape:cy="1006.9418" inkscape:document-units="mm" inkscape:pageopacity="0.0" inkscape:pageshadow="2" inkscape:window-height="1046" inkscape:window-maximized="1" inkscape:window-width="1817" inkscape:window-x="-11" inkscape:window-y="-11" inkscape:zoom="0.16860078" pagecolor="#ffffff" showgrid="true">
	<inkscape:grid  dotted="true" id="grid5776" originx="10.583334" originy="391.58329" type="xygrid"></inkscape:grid>
</sodipodi:namedview>
<g id="layer1" transform="translate(10.583333,158.08337)" inkscape:groupmode="layer" inkscape:label="Layer 1">
	<path id="use8066" inkscape:connector-curvature="0" class="st1" d="M-10.6-158.1v120h120v-120H-10.6z M109.4-38.1v120h120v-120
		H109.4z M229.4-38.1h120v-120h-120V-38.1z M349.4-38.1v120h120v-120H349.4z M469.4-38.1h120v-120h-120V-38.1z M589.4-38.1v120h120
		v-120H589.4z M709.4-38.1h120v-120h-120V-38.1z M829.4-38.1v120h120v-120H829.4z M949.4-38.1h120v-120h-120V-38.1z M1069.4-38.1
		v120h120v-120H1069.4z M1189.4-38.1h120v-120h-120V-38.1z M1309.4-38.1v120h120v-120H1309.4z M1429.4-38.1h120v-120h-120V-38.1z
		 M1549.4-38.1v120h120v-120H1549.4z M1669.4-38.1h120v-120h-120V-38.1z M1789.4-38.1v120h120v-120H1789.4z M1909.4-38.1h120v-120
		h-120V-38.1z M2029.4-38.1v120h120v-120H2029.4z M2149.4-38.1h120v-120h-120V-38.1z M2269.4-38.1v120h120v-120H2269.4z
		 M2269.4,81.9h-120v120h120V81.9z M2269.4,201.9v120h120v-120H2269.4z M2269.4,321.9h-120v120h120V321.9z M2269.4,441.9v120h120
		v-120H2269.4z M2269.4,561.9h-120v120h120V561.9z M2269.4,681.9v120h120v-120H2269.4z M2269.4,801.9h-120v120h120V801.9z
		 M2269.4,921.9v120h120v-120H2269.4z M2269.4,1041.9h-120v120h120V1041.9z M2269.4,1161.9v120h120v-120H2269.4z M2269.4,1281.9
		h-120v120h120V1281.9z M2269.4,1401.9v120h120v-120H2269.4z M2269.4,1521.9h-120v120h120V1521.9z M2269.4,1641.9v120h120v-120
		H2269.4z M2269.4,1761.9h-120v120h120V1761.9z M2269.4,1881.9v120h120v-120H2269.4z M2269.4,2001.9h-120v120h120V2001.9z
		 M2269.4,2121.9v120h120v-120H2269.4z M2149.4,2121.9h-120v120h120V2121.9z M2029.4,2121.9v-120h-120v120H2029.4z M1909.4,2121.9
		h-120v120h120V2121.9z M1789.4,2121.9v-120h-120v120H1789.4z M1669.4,2121.9h-120v120h120V2121.9z M1549.4,2121.9v-120h-120v120
		H1549.4z M1429.4,2121.9h-120v120h120V2121.9z M1309.4,2121.9v-120h-120v120H1309.4z M1189.4,2121.9h-120v120h120V2121.9z
		 M1069.4,2121.9v-120h-120v120H1069.4z M949.4,2121.9h-120v120h120V2121.9z M829.4,2121.9v-120h-120v120H829.4z M709.4,2121.9h-120
		v120h120V2121.9z M589.4,2121.9v-120h-120v120H589.4z M469.4,2121.9h-120v120h120V2121.9z M349.4,2121.9v-120h-120v120H349.4z
		 M229.4,2121.9h-120v120h120V2121.9z M109.4,2121.9v-120h-120v120H109.4z M109.4,2001.9h120v-120h-120V2001.9z M109.4,1881.9v-120
		h-120v120H109.4z M109.4,1761.9h120v-120h-120V1761.9z M109.4,1641.9v-120h-120v120H109.4z M109.4,1521.9h120v-120h-120V1521.9z
		 M109.4,1401.9v-120h-120v120H109.4z M109.4,1281.9h120v-120h-120V1281.9z M109.4,1161.9v-120h-120v120H109.4z M109.4,1041.9h120
		v-120h-120V1041.9z M109.4,921.9v-120h-120v120H109.4z M109.4,801.9h120v-120h-120V801.9z M109.4,681.9v-120h-120v120H109.4z
		 M109.4,561.9h120v-120h-120V561.9z M109.4,441.9v-120h-120v120H109.4z M109.4,321.9h120v-120h-120V321.9z M109.4,201.9v-120h-120
		v120H109.4z M229.4,201.9h120v-120h-120V201.9z M349.4,201.9v120h120v-120H349.4z M469.4,201.9h120v-120h-120V201.9z M589.4,201.9
		v120h120v-120H589.4z M709.4,201.9h120v-120h-120V201.9z M829.4,201.9v120h120v-120H829.4z M949.4,201.9h120v-120h-120V201.9z
		 M1069.4,201.9v120h120v-120H1069.4z M1189.4,201.9h120v-120h-120V201.9z M1309.4,201.9v120h120v-120H1309.4z M1429.4,201.9h120
		v-120h-120V201.9z M1549.4,201.9v120h120v-120H1549.4z M1669.4,201.9h120v-120h-120V201.9z M1789.4,201.9v120h120v-120H1789.4z
		 M1909.4,201.9h120v-120h-120V201.9z M2029.4,201.9v120h120v-120H2029.4z M2029.4,321.9h-120v120h120V321.9z M2029.4,441.9v120h120
		v-120H2029.4z M2029.4,561.9h-120v120h120V561.9z M2029.4,681.9v120h120v-120H2029.4z M2029.4,801.9h-120v120h120V801.9z
		 M2029.4,921.9v120h120v-120H2029.4z M2029.4,1041.9h-120v120h120V1041.9z M2029.4,1161.9v120h120v-120H2029.4z M2029.4,1281.9
		h-120v120h120V1281.9z M2029.4,1401.9v120h120v-120H2029.4z M2029.4,1521.9h-120v120h120V1521.9z M2029.4,1641.9v120h120v-120
		H2029.4z M2029.4,1761.9h-120v120h120V1761.9z M2029.4,1881.9v120h120v-120H2029.4z M1909.4,1881.9h-120v120h120V1881.9z
		 M1789.4,1881.9v-120h-120v120H1789.4z M1669.4,1881.9h-120v120h120V1881.9z M1549.4,1881.9v-120h-120v120H1549.4z M1429.4,1881.9
		h-120v120h120V1881.9z M1309.4,1881.9v-120h-120v120H1309.4z M1189.4,1881.9h-120v120h120V1881.9z M1069.4,1881.9v-120h-120v120
		H1069.4z M949.4,1881.9h-120v120h120V1881.9z M829.4,1881.9v-120h-120v120H829.4z M709.4,1881.9h-120v120h120V1881.9z
		 M589.4,1881.9v-120h-120v120H589.4z M469.4,1881.9h-120v120h120V1881.9z M349.4,1881.9v-120h-120v120H349.4z M349.4,1761.9h120
		v-120h-120V1761.9z M349.4,1641.9v-120h-120v120H349.4z M349.4,1521.9h120v-120h-120V1521.9z M349.4,1401.9v-120h-120v120H349.4z
		 M349.4,1281.9h120v-120h-120V1281.9z M349.4,1161.9v-120h-120v120H349.4z M349.4,1041.9h120v-120h-120V1041.9z M349.4,921.9v-120
		h-120v120H349.4z M349.4,801.9h120v-120h-120V801.9z M349.4,681.9v-120h-120v120H349.4z M349.4,561.9h120v-120h-120V561.9z
		 M349.4,441.9v-120h-120v120H349.4z M469.4,441.9h120v-120h-120V441.9z M589.4,441.9v120h120v-120H589.4z M709.4,441.9h120v-120
		h-120V441.9z M829.4,441.9v120h120v-120H829.4z M949.4,441.9h120v-120h-120V441.9z M1069.4,441.9v120h120v-120H1069.4z
		 M1189.4,441.9h120v-120h-120V441.9z M1309.4,441.9v120h120v-120H1309.4z M1429.4,441.9h120v-120h-120V441.9z M1549.4,441.9v120
		h120v-120H1549.4z M1669.4,441.9h120v-120h-120V441.9z M1789.4,441.9v120h120v-120H1789.4z M1789.4,561.9h-120v120h120V561.9z
		 M1789.4,681.9v120h120v-120H1789.4z M1789.4,801.9h-120v120h120V801.9z M1789.4,921.9v120h120v-120H1789.4z M1789.4,1041.9h-120
		v120h120V1041.9z M1789.4,1161.9v120h120v-120H1789.4z M1789.4,1281.9h-120v120h120V1281.9z M1789.4,1401.9v120h120v-120H1789.4z
		 M1789.4,1521.9h-120v120h120V1521.9z M1789.4,1641.9v120h120v-120H1789.4z M1669.4,1641.9h-120v120h120V1641.9z M1549.4,1641.9
		v-120h-120v120H1549.4z M1429.4,1641.9h-120v120h120V1641.9z M1309.4,1641.9v-120h-120v120H1309.4z M1189.4,1641.9h-120v120h120
		V1641.9z M1069.4,1641.9v-120h-120v120H1069.4z M949.4,1641.9h-120v120h120V1641.9z M829.4,1641.9v-120h-120v120H829.4z
		 M709.4,1641.9h-120v120h120V1641.9z M589.4,1641.9v-120h-120v120H589.4z M589.4,1521.9h120v-120h-120V1521.9z M589.4,1401.9v-120
		h-120v120H589.4z M589.4,1281.9h120v-120h-120V1281.9z M589.4,1161.9v-120h-120v120H589.4z M589.4,1041.9h120v-120h-120V1041.9z
		 M589.4,921.9v-120h-120v120H589.4z M589.4,801.9h120v-120h-120V801.9z M589.4,681.9v-120h-120v120H589.4z M709.4,681.9h120v-120
		h-120V681.9z M829.4,681.9v120h120v-120H829.4z M949.4,681.9h120v-120h-120V681.9z M1069.4,681.9v120h120v-120H1069.4z
		 M1189.4,681.9h120v-120h-120V681.9z M1309.4,681.9v120h120v-120H1309.4z M1429.4,681.9h120v-120h-120V681.9z M1549.4,681.9v120
		h120v-120H1549.4z M1549.4,801.9h-120v120h120V801.9z M1549.4,921.9v120h120v-120H1549.4z M1549.4,1041.9h-120v120h120V1041.9z
		 M1549.4,1161.9v120h120v-120H1549.4z M1549.4,1281.9h-120v120h120V1281.9z M1549.4,1401.9v120h120v-120H1549.4z M1429.4,1401.9
		h-120v120h120V1401.9z M1309.4,1401.9v-120h-120v120H1309.4z M1189.4,1401.9h-120v120h120V1401.9z M1069.4,1401.9v-120h-120v120
		H1069.4z M949.4,1401.9h-120v120h120V1401.9z M829.4,1401.9v-120h-120v120H829.4z M829.4,1281.9h120v-120h-120V1281.9z
		 M829.4,1161.9v-120h-120v120H829.4z M829.4,1041.9h120v-120h-120V1041.9z M829.4,921.9v-120h-120v120H829.4z M949.4,921.9h120
		v-120h-120V921.9z M1069.4,921.9v120h120v-120H1069.4z M1189.4,921.9h120v-120h-120V921.9z M1309.4,921.9v120h120v-120H1309.4z
		 M1309.4,1041.9h-120v120h120V1041.9z M1309.4,1161.9v120h120v-120H1309.4z M1189.4,1161.9h-120v120h120V1161.9z M1069.4,1161.9
		v-120h-120v120H1069.4z"/>
</g>
</svg>
