<svg version="1.2" xmlns="http://www.w3.org/2000/svg" viewBox="0 0 1024 1024" width="1024" height="1024">
	<title>download (10)</title>
	<style>
		.s0 { fill: #000000 } 
		.s1 { fill: #ffffff } 
		.s2 { fill: #c00c00 } 
	</style>
	<g id="Background">
		<g id="Layer 3 copy">
			<path id="Path 0" class="s0" d="m216.4 1c0.3 0.6-0.7 1-2.4 1-1.7 0-7.4 0.7-12.8 1.6-5.3 0.8-14 2.7-19.2 4.1-5.2 1.4-12.7 3.6-16.5 4.8-3.9 1.3-10.6 3.8-15 5.6-4.4 1.7-11.4 4.8-15.5 6.9-4.1 2.1-11.6 6.1-16.5 9.1-5 2.9-11.3 6.8-14 8.7-2.8 1.9-8.6 6.3-13 9.7-4.4 3.4-13.2 11.4-19.5 17.6-6.4 6.3-14.6 15.2-18.3 19.9-3.8 4.7-9.4 12.3-12.5 17-3.1 4.7-6.5 9.8-7.5 11.5-1 1.6-4.9 9.3-8.7 17-3.8 7.7-8.6 18.5-10.6 24-2 5.5-4.5 13.4-5.6 17.5-1.1 4.1-2.5 9.3-2.9 11.5-0.5 2.2-1.4 6.5-1.9 9.5-0.6 3-1.7 11.1-2.5 18-1.2 10.6-1.5 54.9-1.5 295.3 0 186.6 0.3 286 1 292.4 0.6 5.4 1.8 14.1 2.6 19.3 0.9 5.2 2.6 13.5 3.9 18.5 1.3 5 3.6 12.6 5 17 1.5 4.4 4.7 12.7 7.2 18.5 2.5 5.8 6 13.2 7.7 16.5 1.8 3.3 4.3 7.8 5.6 10 1.2 2.2 5 8 8.3 13 3.3 5 7.1 10.4 8.6 12.1 1.4 1.7 4.1 5.1 6 7.5 1.9 2.4 9.1 10 16 16.9 6.9 6.9 17.1 15.9 22.6 20.1 5.5 4.2 13.6 9.9 18 12.6 4.4 2.8 11.8 7 16.5 9.5 4.7 2.5 11.9 6 16 7.8 4.1 1.8 11.6 4.7 16.5 6.5 4.9 1.8 13.5 4.4 19 5.8 5.5 1.5 15.4 3.5 22 4.7 6.6 1.1 14.6 2 17.7 2 3.5 0 5.6 0.4 5.3 1-0.3 0.7 95.3 1 286 1 190.7 0 286.3-0.3 286-1-0.3-0.6 1.8-1 5.2-1 3.2 0 11.2-0.9 17.8-2 6.6-1.1 17-3.3 23-4.9 6-1.6 15.5-4.5 21-6.6 5.5-2 15.4-6.3 22-9.5 6.6-3.2 15.8-8.1 20.5-11 4.7-2.9 11.4-7.3 15-9.8 3.6-2.5 7-5 7.6-5.6 0.7-0.6 3.1-2.7 5.5-4.6 2.4-1.9 9.8-8.8 16.5-15.5 6.7-6.6 14.8-15.4 18-19.5 3.2-4.1 6.1-7.7 6.4-8 0.3-0.3 1.9-2.5 3.6-5 1.7-2.5 5.3-8.1 8.1-12.5 2.7-4.4 7.4-13.2 10.5-19.5 3.1-6.3 6.8-14.6 8.3-18.5 1.4-3.9 3.7-10.1 4.9-14 1.3-3.9 3.3-10.8 4.4-15.5 1.1-4.7 2.4-9.9 2.7-11.5 0.4-1.6 1.3-7.3 2.1-12.5 0.8-5.2 1.4-11.9 1.4-14.7 0-3.2 0.4-5.1 1-4.8 0.7 0.3 1-95 1-285 0-190-0.3-285.3-1-285-0.6 0.3-1-1.5-1-4.5 0-2.7-0.5-8.3-1.1-12.2-0.5-4-1.7-10.7-2.5-14.8-0.8-4.1-2.2-10.2-3-13.5-0.8-3.3-2.4-8.9-3.5-12.5-1.2-3.6-3.9-11-6.1-16.5-2.2-5.5-6.5-14.9-9.6-21-3.1-6-7.6-14.1-10.1-18-2.4-3.8-8.3-12.2-13-18.5-4.7-6.3-14-16.9-20.6-23.5-6.6-6.6-16.8-15.6-22.5-20.1-5.8-4.4-13-9.6-16-11.5-3-2-8.6-5.4-12.5-7.6-3.9-2.2-10.1-5.6-14-7.6-3.9-1.9-10.6-4.9-15-6.6-4.4-1.8-11.3-4.3-15.3-5.7-3.9-1.3-12.5-3.7-19-5.3-6.4-1.7-16-3.6-21.4-4.3-5.3-0.7-9.4-1.6-9.2-2 0.2-0.5-132.8-0.8-295.7-0.8-197.1 0-295.9 0.3-295.5 1z"/>
			<path id="Path 1" class="s1" d="m474 64.5c-8.5 0.7-24.1 2.7-34.5 4.5-10.4 1.7-26.2 4.9-35 7.1-8.8 2.2-21.2 5.6-27.5 7.6-6.3 1.9-18.5 6.2-27 9.5-8.5 3.3-24.1 10.2-34.5 15.3-10.4 5.1-23.1 11.7-28 14.5-4.9 2.9-14.9 9.1-22 13.8-7.1 4.6-18.2 12.4-24.5 17.2-6.3 4.9-15.8 12.5-21 17-5.2 4.5-16 14.5-23.9 22.3-7.9 7.8-19.1 19.8-25 26.7-5.8 6.9-14 17-18.2 22.5-4.2 5.5-11.4 15.9-16.1 23-4.7 7.1-11.1 17.5-14.3 23-3.2 5.5-8.6 15.7-12.1 22.8-3.5 7-9.1 19.1-12.5 26.9-3.3 7.9-8.4 21.5-11.4 30.3-2.9 8.8-6.9 22.1-8.9 29.5-1.9 7.4-4.8 20.5-6.5 29-1.6 8.5-3.7 21.1-4.5 28-0.9 6.9-2 19-2.6 27-0.5 8-1 21.5-1 30 0 8.5 0.5 22 1 30 0.6 8 1.7 20.1 2.6 27 0.8 6.9 2.9 19.5 4.5 28 1.7 8.5 4.6 21.6 6.5 29 2 7.4 6 20.7 8.9 29.5 3 8.8 8.1 22.4 11.4 30.3 3.4 7.8 9 19.9 12.5 26.9 3.5 7.1 8.9 17.3 12.1 22.8 3.2 5.5 9.6 15.9 14.3 23 4.7 7.1 11.9 17.5 16.1 23 4.2 5.5 12.4 15.6 18.2 22.5 5.9 6.9 16.9 18.7 24.5 26.2 7.7 7.5 18.4 17.6 23.9 22.3 5.5 4.8 15.2 12.7 21.5 17.5 6.3 4.8 17.4 12.6 24.5 17.2 7.1 4.7 18.4 11.6 25 15.3 6.6 3.8 18.8 10.1 27 14.1 8.3 4 22.4 10.2 31.5 13.7 9.1 3.6 21.7 8.1 28 10 6.3 2 18.7 5.4 27.5 7.6 8.8 2.2 24.1 5.3 34 7 9.9 1.6 24.1 3.5 31.5 4.3 7.8 0.7 25.6 1.3 42 1.3 16.4 0 34.2-0.6 42-1.3 7.4-0.8 21.6-2.7 31.5-4.3 9.9-1.7 25.2-4.8 34-7 8.8-2.2 21.2-5.6 27.5-7.6 6.3-1.9 18.9-6.4 28-10 9.1-3.5 23.3-9.7 31.5-13.7 8.3-4 20.4-10.3 27-14.1 6.6-3.7 17.9-10.6 25-15.3 7.1-4.6 18.2-12.4 24.5-17.2 6.3-4.9 15.8-12.5 21-17 5.2-4.5 16-14.5 23.9-22.3 7.9-7.8 19.1-19.8 25-26.7 5.8-6.9 14-17 18.2-22.5 4.2-5.5 11.4-15.9 16.1-23 4.7-7.1 11.4-18 14.9-24 3.4-6 10-18.6 14.5-28 4.5-9.4 10.3-22.4 12.9-29 2.6-6.6 6.7-18.1 9.2-25.5 2.4-7.4 5.9-19.4 7.8-26.5 1.9-7.1 4.8-20.2 6.4-29 1.7-8.8 3.7-21.4 4.5-28 0.9-6.6 2-18.5 2.6-26.5 0.5-8 1-21.5 1-30 0-8.5-0.5-22-1-30-0.6-8-1.7-19.7-2.5-26-0.8-6.3-2.6-18-4.1-26-1.4-8-4.3-21.3-6.4-29.5-2.2-8.3-5.9-21.1-8.3-28.5-2.4-7.4-6.6-18.9-9.2-25.5-2.6-6.6-8.4-19.6-12.9-29-4.5-9.4-11.1-21.9-14.5-28-3.5-6.1-10.2-16.9-14.9-24-4.7-7.1-11.9-17.5-16.1-23-4.2-5.5-12.4-15.6-18.2-22.5-5.9-6.9-16.9-18.7-24.5-26.2-7.7-7.5-18.4-17.6-23.9-22.3-5.5-4.8-15.2-12.7-21.5-17.5-6.3-4.8-17.4-12.6-24.5-17.2-7.1-4.7-18.4-11.6-25-15.3-6.6-3.8-18.8-10.1-27-14.1-8.3-4-22.4-10.2-31.5-13.7-9.1-3.6-21.7-8.1-28-10-6.3-2-18.7-5.4-27.5-7.6-8.8-2.2-24.3-5.4-34.5-7.1-10.2-1.6-26.7-3.7-36.8-4.5-10-0.8-27.3-1.4-38.5-1.4-11.1 0.1-27.2 0.7-35.7 1.4z"/>
			<path id="Path 2" class="s2" d="m484 173.1c-5.8 0.5-16.6 1.8-24 2.9-7.4 1.1-21.4 4-31 6.4-9.6 2.4-21.8 5.9-27 7.6-5.2 1.8-15.8 5.9-23.5 9.2-7.7 3.3-18.7 8.5-24.5 11.6-5.8 3.1-14.6 8-19.5 11-4.9 3-13.7 8.8-19.5 13-5.8 4.1-15.2 11.4-21 16.1-5.7 4.7-15.9 14-22.5 20.6-6.6 6.6-16.2 17.2-21.4 23.5-5.2 6.3-12.4 15.8-16.1 21-3.7 5.2-9.3 13.8-12.5 19-3.2 5.2-8.1 14-11.1 19.5-2.9 5.5-7.6 15.4-10.4 22-2.9 6.6-7.1 17.6-9.5 24.5-2.3 6.9-5.4 16.8-6.8 22-1.4 5.2-3.7 15.1-5.1 22-1.4 6.9-3.3 18.4-4.3 25.5-1.2 9.7-1.7 20.2-1.7 41 0 20.8 0.5 31.3 1.7 41 1 7.1 2.9 18.6 4.3 25.5 1.4 6.9 3.7 16.8 5.1 22 1.4 5.2 4.5 15.1 6.8 22 2.4 6.9 6.6 17.9 9.5 24.5 2.8 6.6 7.5 16.5 10.4 22 3 5.5 7.9 14.3 11.1 19.5 3.2 5.2 8.8 13.8 12.5 19 3.7 5.2 10.7 14.5 15.7 20.5 4.9 6 14.3 16.4 20.9 23 6.6 6.6 16.4 15.8 21.9 20.3 5.5 4.6 15.2 12.1 21.5 16.6 6.3 4.6 15.6 10.7 20.5 13.7 4.9 3.1 13.7 8.1 19.5 11.1 5.8 3.1 16.8 8.3 24.5 11.6 7.7 3.3 18.9 7.6 25 9.6 6.1 2 18.2 5.5 27 7.6 8.8 2.2 21.9 4.9 29 5.9 7.1 1.1 19.1 2.5 26.5 3.1 7.4 0.5 18.9 1 25.5 1 6.6 0 18.1-0.5 25.5-1 7.4-0.6 19.4-2 26.5-3.1 7.1-1 20.2-3.7 29-5.9 8.8-2.1 21-5.6 27-7.6 6-2 17.3-6.3 25-9.6 7.7-3.3 18.7-8.5 24.5-11.6 5.8-3 15-8.3 20.5-11.7 5.5-3.4 14.3-9.2 19.5-13 5.2-3.7 14.2-10.7 20-15.4 5.7-4.7 15.9-14 22.5-20.6 6.6-6.6 16.2-17.2 21.4-23.5 5.2-6.3 12.4-15.8 16.1-21 3.7-5.2 9.2-13.5 12.2-18.5 3-5 8.2-14.2 11.5-20.5 3.4-6.3 8.2-16.5 10.8-22.5 2.6-6 6.7-16.9 9.1-24 2.5-7.1 6.1-19.1 7.9-26.5 1.9-7.4 4.3-18.7 5.4-25 1.1-6.3 2.6-16.5 3.3-22.5 0.8-6.7 1.3-21.4 1.2-37.5 0-19.2-0.5-30.1-1.8-39.5-0.9-7.1-2.8-18.6-4.2-25.5-1.4-6.9-3.7-16.8-5.1-22-1.4-5.2-4.5-15.1-6.8-22-2.4-6.9-6.4-17.4-9-23.5-2.6-6.1-7.4-16.2-10.8-22.5-3.3-6.3-8.5-15.6-11.5-20.5-3-4.9-8.5-13.3-12.2-18.5-3.7-5.2-10.9-14.7-16.1-21-5.2-6.3-14.6-16.7-20.9-23-6.4-6.3-16-15.3-21.5-19.8-5.5-4.6-15.2-12.1-21.5-16.7-6.3-4.5-15.5-10.7-20.5-13.7-5-3-13.7-7.9-19.5-11-5.8-3.1-16.8-8.3-24.5-11.6-7.7-3.3-19-7.6-25-9.6-6-2-18.2-5.5-27-7.6-8.8-2.2-21.9-4.9-29-5.9-7.1-1.1-19.1-2.5-26.5-3.1-7.4-0.5-20-0.9-28-0.9-8 0.1-19.2 0.6-25 1z"/>
			<path id="Path 3" class="s1" d="m511 397.5v114.5h-160v161h161v-160h229v-230h-230z"/>
			<path id="Path 4" class="s0" d="m486 284.5c-6.3 0.7-16 2.3-21.5 3.4-5.5 1.2-13.1 3.1-17 4.2-3.9 1.2-11.7 3.9-17.5 6.1-5.8 2.2-15.9 6.8-22.5 10.2-6.6 3.4-16.5 9.2-22 12.9-5.5 3.6-14.3 10.1-19.5 14.5-5.2 4.3-14.2 12.8-19.9 18.8-5.7 6-13.4 15-17.1 19.9-3.7 4.9-9 12.6-11.7 17-2.8 4.4-7 12.1-9.5 17-2.5 4.9-6.6 14.3-9.2 20.8-2.5 6.4-6.2 17.7-8.1 24.9-1.9 7.3-4.1 18-4.9 23.8-0.9 5.8-1.6 12.4-1.6 14.8 0 2.3-0.4 4.2-1 4.2-0.6 0-1 5.7-1 15 0 9.3 0.4 15 1 15 0.6 0 1 1.9 1 4.3 0 2.3 0.7 8.9 1.6 14.7 0.8 5.8 3 16.5 4.9 23.8 1.9 7.2 5.6 18.5 8.1 24.9 2.6 6.5 6.7 15.8 9.2 20.8 2.5 5 6.7 12.6 9.5 17 2.7 4.4 8 12 11.7 17 3.7 5 11.4 13.9 17.1 19.9 5.7 6 14.7 14.5 19.9 18.8 5.2 4.4 14 10.9 19.5 14.5 5.5 3.7 14.9 9.2 21 12.4 6.1 3.2 15.5 7.5 21 9.7 5.5 2.2 13.8 5.1 18.5 6.6 4.7 1.4 12.8 3.5 18 4.6 5.2 1.1 15.6 2.7 23 3.5 7.4 0.8 18.7 1.5 25 1.5 6.3 0 17.6-0.7 25-1.5 7.4-0.8 17.8-2.4 23-3.5 5.2-1.1 13.3-3.2 18-4.6 4.7-1.5 13-4.4 18.5-6.6 5.5-2.2 15-6.5 21-9.7 6-3.2 15.5-8.7 21-12.4 5.5-3.6 14.3-10.1 19.5-14.5 5.2-4.3 14.2-12.8 19.9-18.8 5.7-6 13.4-14.9 17.1-19.9 3.7-5 9-12.6 11.7-17 2.8-4.4 7-12 9.5-17 2.5-5 6.6-14.3 9.2-20.8 2.5-6.4 6.2-17.7 8.1-24.9 1.9-7.3 4.1-18 4.9-23.8 0.9-5.8 1.9-15.6 2.3-21.8l0.8-11.2h-229.5v160h-161v-161h160v-229c-10.5 0.2-18.7 0.8-25 1.5z"/>
		</g>
	</g>
</svg>